<?xml version="1.0" encoding="UTF-8"?>
<svg xmlns="http://www.w3.org/2000/svg" width="197" height="58" viewBox="0 0 197 58" fill="none">
  <g id="logo">
    <path id="Vector" d="M64.3022 56.5771C63.6343 56.9339 62.883 57.109 62.1247 57.0845C61.5421 57.0936 60.9622 57.0062 60.4087 56.8258C59.9548 56.6741 59.5378 56.4302 59.1845 56.1095C58.8565 55.8131 58.6023 55.4453 58.4419 55.0351C58.2694 54.6013 58.1841 54.1383 58.191 53.6721C58.1573 53.1645 58.229 52.6553 58.4016 52.1762C58.5742 51.6971 58.844 51.2582 59.1945 50.8865C59.5793 50.5418 60.0295 50.2763 60.5187 50.1055C61.008 49.9347 61.5266 49.862 62.0444 49.8917C62.7974 49.8744 63.5437 50.0347 64.222 50.3592C64.8584 50.6717 65.3553 51.2069 65.6168 51.8615L66.5199 51.4536C66.3406 51.0398 66.0815 50.6648 65.7573 50.3493C65.4392 50.0459 65.0773 49.791 64.6836 49.5932C64.2774 49.3903 63.8453 49.243 63.3991 49.1555C62.9499 49.065 62.4928 49.0184 62.0344 49.0162C61.3542 49.0071 60.6769 49.1044 60.0274 49.3047C59.4589 49.4825 58.933 49.7737 58.4821 50.1603C58.0397 50.542 57.6956 51.0229 57.4786 51.563C57.0184 52.744 56.997 54.0488 57.4184 55.244C57.6047 55.7809 57.9138 56.2678 58.3215 56.6666C58.756 57.0861 59.2761 57.4084 59.8468 57.6118C61.4574 58.1447 63.2106 58.063 64.7638 57.3829C65.5798 56.9703 66.2359 56.3024 66.6303 55.4828L65.7071 55.045C65.3954 55.6778 64.908 56.2093 64.3022 56.5771Z" fill="white"></path>
    <path id="Vector_2" d="M77.7777 53.8612C78.0888 53.7731 78.386 53.6425 78.6607 53.4732C78.9393 53.2879 79.1724 53.0431 79.3431 52.7569C79.5381 52.4217 79.6354 52.0394 79.6241 51.6526C79.6497 51.2092 79.53 50.7695 79.2829 50.3991C79.0711 50.0916 78.7847 49.8418 78.45 49.6728C78.1039 49.5012 77.7305 49.3902 77.3462 49.3445C76.9801 49.2984 76.6114 49.2752 76.2424 49.2749H71.2852V57.7809H72.2886V54.0104H75.6704L78.4299 57.7809H79.7244L76.8846 53.9905C77.1862 53.9801 77.4857 53.9367 77.7777 53.8612ZM72.3187 53.1051V50.1902H76.0015C76.3572 50.1916 76.7124 50.2149 77.0652 50.2598C77.3498 50.2806 77.6284 50.3513 77.8881 50.4687C78.1079 50.5637 78.2983 50.7147 78.44 50.9065C78.571 51.1355 78.6399 51.3943 78.6399 51.6576C78.6399 51.9209 78.571 52.1796 78.44 52.4087C78.3019 52.6062 78.1107 52.7613 77.8881 52.8564C77.6284 52.9738 77.3498 53.0445 77.0652 53.0653C76.7156 53.1067 76.3637 53.1267 76.0116 53.125L72.3187 53.1051Z" fill="white"></path>
    <path id="Vector_3" d="M92.6929 54.2399C92.7271 54.6451 92.6629 55.0525 92.5058 55.4281C92.3487 55.8037 92.1031 56.1365 91.7897 56.3987C91.0444 56.8538 90.1864 57.0948 89.3111 57.0948C88.4359 57.0948 87.5778 56.8538 86.8325 56.3987C86.5191 56.1365 86.2736 55.8037 86.1165 55.4281C85.9593 55.0525 85.8952 54.6451 85.9294 54.2399V49.2656H84.9259V54.2399C84.8959 54.8903 85.0341 55.5376 85.3273 56.1202C85.5583 56.5772 85.9038 56.9677 86.3308 57.2543C86.767 57.5327 87.2548 57.7221 87.7657 57.8114C88.2683 57.9089 88.779 57.9588 89.291 57.9606C89.8064 57.9589 90.3205 57.9089 90.8264 57.8114C91.3337 57.7204 91.8179 57.531 92.2513 57.2543C92.6967 56.9743 93.06 56.5832 93.305 56.1202C93.5982 55.5376 93.7364 54.8903 93.7064 54.2399V49.2656H92.7029L92.6929 54.2399Z" fill="white"></path>
    <path id="Vector_4" d="M100.13 49.2749H99.0859V57.7909H100.13V49.2749Z" fill="white"></path>
    <path id="Vector_5" d="M112.441 53.5228C112.059 53.3423 111.653 53.2151 111.236 53.1448C110.785 53.0552 110.333 52.9955 109.862 52.9458L108.497 52.8165C108.09 52.7875 107.687 52.7209 107.293 52.6175C106.982 52.5398 106.691 52.3974 106.44 52.1997C106.333 52.1072 106.249 51.9921 106.193 51.8629C106.138 51.7337 106.112 51.5938 106.119 51.4535C106.116 51.2041 106.194 50.9604 106.339 50.7571C106.505 50.5547 106.714 50.3916 106.952 50.2796C107.246 50.1494 107.556 50.0591 107.875 50.011C108.267 49.9524 108.663 49.9257 109.059 49.9314C109.559 49.9173 110.06 49.9743 110.544 50.1005C110.895 50.1981 111.232 50.3385 111.547 50.5183C111.786 50.6507 112.006 50.8147 112.2 51.0058C112.36 51.1749 112.491 51.3142 112.571 51.4137L113.334 50.8068C113.16 50.5771 112.957 50.3698 112.732 50.19C112.455 49.965 112.152 49.7745 111.828 49.623C111.437 49.4498 111.031 49.3133 110.614 49.2151C110.11 49.1078 109.595 49.0544 109.079 49.0559C108.537 49.0519 107.995 49.102 107.463 49.2051C107.018 49.2888 106.588 49.4398 106.189 49.6528C105.844 49.8427 105.554 50.1166 105.346 50.4487C105.138 50.801 105.033 51.2044 105.045 51.6127C105.041 51.97 105.153 52.3191 105.366 52.6075C105.591 52.8909 105.884 53.1134 106.219 53.2542C106.605 53.4163 107.009 53.5299 107.423 53.5924C107.875 53.672 108.326 53.7317 108.798 53.7814L110.163 53.9207C110.57 53.9557 110.973 54.0291 111.367 54.1396C111.682 54.2175 111.974 54.3674 112.22 54.5774C112.324 54.6735 112.407 54.7907 112.463 54.9211C112.518 55.0514 112.545 55.192 112.541 55.3334C112.551 55.6367 112.443 55.9323 112.24 56.1592C112.024 56.3856 111.76 56.5622 111.467 56.6765C111.145 56.8071 110.808 56.9005 110.464 56.955C110.131 57.003 109.796 57.0296 109.46 57.0346C108.909 57.0461 108.36 56.9859 107.825 56.8556C107.438 56.7604 107.067 56.6131 106.721 56.4178C106.459 56.265 106.222 56.0738 106.018 55.8508L105.557 55.3036L104.754 55.9801C104.935 56.1791 105.145 56.3979 105.386 56.6268C105.648 56.8795 105.946 57.0938 106.269 57.2634C106.671 57.4792 107.1 57.643 107.544 57.751C108.131 57.8929 108.735 57.9597 109.34 57.9499C109.982 57.96 110.622 57.8898 111.246 57.741C111.723 57.6311 112.177 57.4428 112.591 57.1839C112.92 56.973 113.192 56.6862 113.384 56.3482C113.561 56.0459 113.654 55.7028 113.655 55.3533C113.674 54.9446 113.561 54.5405 113.334 54.1993C113.1 53.9009 112.792 53.6678 112.441 53.5228Z" fill="white"></path>
    <path id="Vector_6" d="M119.377 53.8114H124.907V52.8962H119.377V50.1902H125.99V49.2749H118.344V57.7809H126.131V56.8756H119.377V53.8114Z" fill="white"></path>
    <path id="Vector_7" d="M137.606 53.5228C137.223 53.3452 136.818 53.2181 136.402 53.1448C135.951 53.0552 135.489 52.9955 135.027 52.9458L133.663 52.8164C133.253 52.7866 132.846 52.72 132.448 52.6175C132.141 52.5397 131.853 52.3972 131.605 52.1996C131.497 52.1086 131.412 51.9937 131.356 51.8642C131.3 51.7347 131.276 51.5941 131.284 51.4535C131.277 51.2034 131.355 50.9581 131.505 50.7571C131.665 50.5526 131.871 50.3889 132.107 50.2796C132.405 50.1495 132.719 50.0591 133.041 50.0109C133.432 49.952 133.828 49.9254 134.225 49.9313C134.725 49.9185 135.225 49.9755 135.71 50.1005C136.06 50.2 136.397 50.3402 136.713 50.5183C136.95 50.6538 137.169 50.8175 137.366 51.0058L137.737 51.4137L138.489 50.8068C138.316 50.5795 138.118 50.3725 137.897 50.19C137.621 49.9649 137.318 49.7745 136.994 49.6229C136.6 49.45 136.19 49.3135 135.77 49.2151C135.266 49.1063 134.751 49.0528 134.235 49.0559C133.696 49.0521 133.158 49.1021 132.629 49.2051C132.183 49.287 131.753 49.4381 131.355 49.6528C131.01 49.8427 130.72 50.1166 130.512 50.4487C130.303 50.801 130.199 51.2043 130.211 51.6126C130.203 51.9705 130.316 52.3208 130.532 52.6075C130.753 52.8908 131.043 53.1134 131.375 53.2542C131.761 53.4139 132.165 53.5274 132.579 53.5924C133.03 53.672 133.492 53.7317 133.954 53.7814L135.328 53.9207C135.736 53.9575 136.139 54.0308 136.533 54.1396C136.844 54.2196 137.132 54.3693 137.375 54.5774C137.484 54.6704 137.57 54.787 137.625 54.9182C137.681 55.0493 137.705 55.1914 137.697 55.3334C137.707 55.6367 137.599 55.9323 137.396 56.1591C137.183 56.3854 136.923 56.5621 136.633 56.6765C136.31 56.8076 135.974 56.901 135.629 56.955C135.297 57.0033 134.962 57.0299 134.626 57.0346C134.079 57.0455 133.532 56.9853 133 56.8555C132.613 56.7621 132.242 56.6147 131.897 56.4178C131.631 56.2658 131.391 56.0746 131.184 55.8507C131.003 55.6418 130.853 55.4628 130.732 55.3036L129.93 55.9801C130.11 56.179 130.321 56.3979 130.552 56.6268C130.816 56.8771 131.113 57.0912 131.435 57.2634C131.841 57.479 132.272 57.6429 132.719 57.7509C133.304 57.8928 133.904 57.9596 134.506 57.9499C135.151 57.9606 135.795 57.8904 136.422 57.741C136.896 57.6311 137.347 57.4428 137.757 57.1839C138.088 56.973 138.363 56.6864 138.56 56.3482C138.727 56.0425 138.816 55.701 138.821 55.3533C138.844 54.9441 138.731 54.5387 138.499 54.1993C138.267 53.8999 137.959 53.6665 137.606 53.5228Z" fill="white"></path>
    <g id="Group 133125">
      <path id="Path 0" fill-rule="evenodd" clip-rule="evenodd" d="M152.476 6.48389H154.746C156.002 6.48389 157.041 6.50804 157.065 6.54024C157.081 6.5805 153.619 10.461 141.639 23.7531L141.647 32.2468H137.783V23.7934L129.909 15.2755C125.586 10.5979 122.011 6.71736 121.979 6.66101C121.939 6.58855 122.414 6.5644 126.632 6.55634L132.831 13.0534C136.237 16.62 139.176 19.7035 139.675 20.2751L152.476 6.48389Z" fill="white"></path>
      <g id="Path 4">
        <path d="M170.427 6.51633L166.941 6.47607L157.94 19.2609C152.996 26.2894 148.939 32.086 148.923 32.1424C148.899 32.2229 149.39 32.239 151.201 32.2471C153.327 32.2471 153.528 32.231 153.657 32.1021C153.729 32.0216 157.127 27.2152 161.2 21.4105C165.282 15.6139 168.647 10.8558 168.68 10.8477C168.712 10.8397 170.652 13.5609 172.987 16.8859C175.322 20.219 177.23 22.9563 177.214 22.9644C177.198 22.9805 176.9 22.7792 176.545 22.5135C176.191 22.2478 175.571 21.8292 175.177 21.5796C174.782 21.322 173.985 20.8872 173.406 20.6135C172.826 20.3317 172.013 19.9775 171.594 19.8164C171.175 19.6635 170.322 19.3817 169.702 19.2046C169.082 19.0194 167.867 18.7296 167.005 18.5525C166.144 18.3834 165.411 18.2626 165.387 18.2948C165.363 18.327 164.839 19.0516 164.236 19.905C163.632 20.7584 163.141 21.4749 163.141 21.491C163.141 21.5152 163.213 21.5313 163.302 21.5313C163.39 21.5313 164.034 21.644 164.727 21.7809C165.427 21.9177 166.578 22.1754 167.287 22.3525C167.995 22.5296 169.259 22.908 170.105 23.1817C170.942 23.4635 172.125 23.8983 172.721 24.1559C173.317 24.4055 174.243 24.8322 174.774 25.0898C175.306 25.3555 176.28 25.8949 176.948 26.2974C177.608 26.6919 178.47 27.2394 178.856 27.5131C179.242 27.7869 179.87 28.2699 180.265 28.5758C180.651 28.8818 181.44 29.5903 182.004 30.1458C182.576 30.7013 183.22 31.3776 183.437 31.6593L183.831 32.1585C187.986 32.1585 188.501 32.1424 188.493 32.0619C188.493 32.0055 184.427 26.233 179.46 19.2368L170.427 6.51633Z" fill="black"></path>
        <path d="M170.427 6.51633L166.941 6.47607L157.94 19.2609C152.996 26.2894 148.939 32.086 148.923 32.1424C148.899 32.2229 149.39 32.239 151.201 32.2471C153.327 32.2471 153.528 32.231 153.657 32.1021C153.729 32.0216 157.127 27.2152 161.2 21.4105C165.282 15.6139 168.647 10.8558 168.68 10.8477C168.712 10.8397 170.652 13.5609 172.987 16.8859C175.322 20.219 177.23 22.9563 177.214 22.9644C177.198 22.9805 176.9 22.7792 176.545 22.5135C176.191 22.2478 175.571 21.8292 175.177 21.5796C174.782 21.322 173.985 20.8872 173.406 20.6135C172.826 20.3317 172.013 19.9775 171.594 19.8164C171.175 19.6635 170.322 19.3817 169.702 19.2046C169.082 19.0194 167.867 18.7296 167.005 18.5525C166.144 18.3834 165.411 18.2626 165.387 18.2948C165.363 18.327 164.839 19.0516 164.236 19.905C163.632 20.7584 163.141 21.4749 163.141 21.491C163.141 21.5152 163.213 21.5313 163.302 21.5313C163.39 21.5313 164.034 21.644 164.727 21.7809C165.427 21.9177 166.578 22.1754 167.287 22.3525C167.995 22.5296 169.259 22.908 170.105 23.1817C170.942 23.4635 172.125 23.8983 172.721 24.1559C173.317 24.4055 174.243 24.8322 174.774 25.0898C175.306 25.3555 176.28 25.8949 176.948 26.2974C177.608 26.6919 178.47 27.2394 178.856 27.5131C179.242 27.7869 179.87 28.2699 180.265 28.5758C180.651 28.8818 181.44 29.5903 182.004 30.1458C182.576 30.7013 183.22 31.3776 183.437 31.6593L183.831 32.1585C187.986 32.1585 188.501 32.1424 188.493 32.0619C188.493 32.0055 184.427 26.233 179.46 19.2368L170.427 6.51633Z" fill="white"></path>
      </g>
      <g id="Path 3">
        <path d="M100.546 6.98325L100.562 6.08154C99.8615 6.09764 99.5153 6.12985 99.3382 6.16205C99.1611 6.20231 98.6136 6.29087 98.1306 6.36333C97.6394 6.43578 96.6975 6.63706 96.0373 6.80613C95.3691 6.97519 94.3627 7.28113 93.7831 7.49045C93.2034 7.69173 92.0441 8.19893 91.2068 8.61758C90.0877 9.1731 89.4436 9.55149 88.7915 10.0345C88.3004 10.4049 87.5758 11.0329 87.1813 11.4354C86.7788 11.846 86.2232 12.4981 85.9495 12.8926C85.6677 13.2871 85.2571 13.9714 85.0398 14.4142C84.8304 14.857 84.5567 15.5092 84.444 15.8634C84.3313 16.2176 84.1783 16.8134 84.0978 17.1918C84.0012 17.691 83.9609 18.2948 83.9609 19.4058C83.9609 20.5893 83.9931 21.0885 84.1059 21.6198C84.1864 21.9982 84.3635 22.6342 84.4923 23.0287C84.6211 23.4232 84.8868 24.0592 85.08 24.4376L85.4262 25.122C86.8351 25.3715 87.3101 25.3957 88.2682 25.3715C89.2826 25.3474 89.661 25.2991 90.3212 25.13C90.764 25.0093 91.4161 24.7677 91.7703 24.5906C92.1246 24.4135 92.6479 24.0914 92.9377 23.8741C93.2275 23.6647 93.7186 23.2219 94.0246 22.8999C94.3386 22.5698 94.7814 22.0304 95.0068 21.7003C95.2322 21.3702 95.5784 20.7664 95.7877 20.3719C95.9971 19.9774 96.303 19.285 96.4801 18.8422C96.6492 18.3994 96.8988 17.6427 97.0356 17.1516C97.2771 16.2982 97.2852 16.2096 97.2852 14.6397C97.2852 13.738 97.261 13.0053 97.2208 13.0053C97.1886 13.0053 96.8183 13.1583 96.3996 13.3354C95.981 13.5206 95.2322 13.7702 94.7492 13.8909C94.2661 14.0197 93.622 14.1405 93.3161 14.1647L92.7767 14.213V17.5138C93.1229 17.5138 93.6703 17.4172 94.2259 17.3126C94.7814 17.1999 95.2564 17.1194 95.2805 17.1274C95.3127 17.1435 95.1517 17.4816 94.9343 17.8761C94.7089 18.2706 94.3305 18.8664 94.0809 19.1965C93.8233 19.5266 93.4369 19.9452 93.2195 20.1384C92.9941 20.3236 92.5996 20.6135 92.3339 20.7745C92.0682 20.9274 91.561 21.1529 91.2068 21.2656C90.7237 21.4266 90.3373 21.483 89.6368 21.5152C89.1296 21.5313 88.5097 21.5232 88.2682 21.483C87.8415 21.4185 87.8334 21.4105 87.7207 21.0563C87.6563 20.855 87.5919 20.2431 87.5677 19.6876C87.5355 18.8584 87.5597 18.5363 87.7046 17.8359C87.8012 17.3689 87.9944 16.7007 88.1394 16.3465C88.2843 15.9922 88.5661 15.4126 88.7754 15.0583C88.9847 14.7041 89.347 14.1566 89.5724 13.8507C89.8059 13.5447 90.4258 12.8524 90.9572 12.321C91.4966 11.7816 92.3097 11.0651 92.7767 10.7189C93.2436 10.3727 94.0085 9.85742 94.4835 9.57564C94.9665 9.29386 95.675 8.89936 96.0776 8.69809C96.4721 8.49682 97.1161 8.20699 97.5026 8.03792C97.8971 7.8769 98.7344 7.57096 99.3784 7.36164L100.546 6.98325Z" fill="white"></path>
        <path d="M115.416 16.1613C115.343 16.1049 115.078 16.0647 114.836 16.0647C114.522 16.0647 114.281 16.121 114.039 16.2499C113.83 16.3626 113.572 16.6041 113.387 16.8698C113.218 17.1113 112.984 17.5863 112.872 17.9164C112.759 18.2465 112.574 18.955 112.453 19.4863C112.34 20.0177 112.131 20.7986 112.002 21.2173C111.865 21.6359 111.616 22.3444 111.439 22.7872C111.262 23.23 110.915 23.9868 110.658 24.4779C110.408 24.969 109.99 25.6694 109.74 26.0478C109.49 26.4262 109.007 27.0783 108.653 27.497C108.307 27.9156 107.735 28.5114 107.381 28.8093C107.035 29.1152 106.399 29.5902 105.98 29.872C105.562 30.1538 104.942 30.508 104.612 30.661C104.281 30.814 103.774 31.0152 103.484 31.1038C103.195 31.2004 102.631 31.3534 102.237 31.4339C101.834 31.5224 101.174 31.6271 100.763 31.6593L100.023 31.7237V32.6093C101.303 32.7623 102.043 32.8106 102.494 32.8106C102.953 32.8106 103.766 32.7542 104.306 32.6818C104.853 32.6174 105.642 32.4805 106.061 32.3919C106.479 32.3034 107.099 32.1424 107.429 32.0297C107.759 31.925 108.323 31.6996 108.677 31.5305C109.031 31.3695 109.579 31.0716 109.885 30.8703C110.191 30.669 110.682 30.3068 110.972 30.0572C111.262 29.8156 111.729 29.3326 112.01 28.9784C112.292 28.6322 112.671 28.0928 112.848 27.7788C113.025 27.4648 113.347 26.7966 113.556 26.2893C113.757 25.7821 114.128 24.7436 114.377 23.9948C114.619 23.2461 114.957 22.0868 115.118 21.4185C115.279 20.7503 115.464 20.1143 115.529 19.9935C115.593 19.8647 115.794 19.6554 115.979 19.5266C116.173 19.3897 116.39 19.285 116.462 19.285C116.567 19.285 116.591 19.2448 116.559 19.1482C116.535 19.0677 116.301 18.3833 116.036 17.6346C115.77 16.8859 115.496 16.2176 115.416 16.1613Z" fill="white"></path>
        <path d="M108.548 6.60485C107.776 6.45189 107.51 6.40358 107.462 6.40358C107.405 6.40358 107.228 6.55655 107.059 6.74172C106.89 6.93494 106.673 7.26503 106.568 7.49045C106.471 7.70783 106.383 8.02181 106.383 8.17478C106.383 8.32775 106.463 8.61758 106.568 8.8108C106.665 9.01208 106.874 9.26971 107.027 9.39852C107.18 9.51929 107.51 9.72861 107.751 9.85742C107.993 9.98624 108.54 10.2117 108.959 10.3485L109.724 10.5981C111.873 8.44046 112.469 7.78834 112.437 7.76418C112.405 7.73198 112.018 7.57901 111.576 7.42605L110.77 7.13621C109.732 8.16673 109.611 8.24724 109.442 8.20699C109.329 8.17478 109.064 8.07817 108.846 7.98156C108.629 7.893 108.404 7.74003 108.339 7.65147C108.283 7.56291 108.234 7.40189 108.234 7.28918C108.234 7.17647 108.307 6.97519 108.395 6.84638L108.548 6.60485Z" fill="white"></path>
        <path d="M114.361 8.60953C114.047 8.45656 113.79 8.32775 113.773 8.32775C113.765 8.32775 113.137 8.93962 112.389 9.68835C111.02 11.0409 111.02 11.049 111.262 11.1053C111.39 11.1375 111.849 11.3227 112.268 11.524C112.687 11.7172 113.379 12.1117 113.798 12.3854C114.216 12.6672 114.796 13.1019 115.086 13.3515C115.376 13.6011 115.835 14.0681 116.108 14.3901C116.382 14.7121 116.793 15.2757 117.018 15.6541C117.243 16.0325 117.533 16.6282 117.67 16.9825C117.807 17.3367 117.992 17.9566 118.073 18.3511C118.169 18.8181 118.226 19.4219 118.226 20.0418C118.226 20.5732 118.169 21.3219 118.105 21.7164C118.04 22.1029 117.888 22.7147 117.775 23.0851C117.654 23.4474 117.412 24.0753 117.219 24.4698C117.034 24.8724 116.696 25.5004 116.462 25.8788C116.221 26.2571 115.794 26.869 115.504 27.2474C115.207 27.6258 114.506 28.3826 113.943 28.9381L112.92 29.9445C112.912 30.7657 112.92 30.7898 113.089 30.7415C113.194 30.7093 113.508 30.5805 113.798 30.4517C114.087 30.3229 114.667 30.0089 115.086 29.7593C115.504 29.5097 116.213 29.0347 116.656 28.7046C117.099 28.3665 117.767 27.7868 118.145 27.4084C118.524 27.03 119.087 26.4021 119.393 25.9995C119.707 25.605 120.126 24.9529 120.327 24.5504C120.536 24.1559 120.818 23.5037 120.955 23.1012C121.1 22.7067 121.285 22.0143 121.382 21.5715C121.51 20.9596 121.543 20.4685 121.543 19.5185C121.543 18.7215 121.502 18.013 121.414 17.5461C121.341 17.1516 121.221 16.588 121.132 16.2982C121.052 16.0083 120.866 15.485 120.721 15.1308C120.585 14.7765 120.319 14.2371 120.134 13.9231C119.957 13.6172 119.61 13.0858 119.361 12.7558C119.119 12.4257 118.588 11.8218 118.193 11.4274C117.791 11.0248 117.243 10.5337 116.978 10.3244C116.712 10.1231 116.14 9.72056 115.706 9.42267C115.279 9.13284 114.667 8.7625 114.361 8.60953Z" fill="white"></path>
        <path d="M99.9903 20.9918C99.9581 20.855 99.8937 20.8067 99.7246 20.8147C99.6039 20.8228 98.9437 20.9274 98.2594 21.0563C97.575 21.1851 96.9954 21.2978 96.9873 21.3058C96.9712 21.3219 97.0598 21.8935 97.1725 22.5779C97.2932 23.2622 97.3577 23.8499 97.3174 23.8741C97.2852 23.9063 96.7055 24.019 96.0454 24.1398C95.3771 24.2525 94.8297 24.3571 94.8136 24.3732C94.8055 24.3813 94.9102 25.0254 95.047 25.7982C95.1839 26.5711 95.3127 27.2233 95.3288 27.2474C95.353 27.2716 96.0293 27.1669 96.8343 27.022C97.6394 26.8771 98.2996 26.7563 98.3077 26.7402C98.3157 26.7321 98.2191 26.1605 98.0983 25.4762C97.9695 24.7919 97.8971 24.2042 97.9212 24.18C97.9534 24.1559 98.4687 24.0512 99.0644 23.9465C99.6602 23.8499 100.224 23.7533 100.312 23.7292C100.473 23.697 100.473 23.6809 100.256 22.433C100.135 21.7406 100.014 21.0885 99.9903 20.9918Z" fill="white"></path>
        <path fill-rule="evenodd" clip-rule="evenodd" d="M103.734 9.55149C104.217 9.57564 104.434 9.62395 104.821 9.81717C105.087 9.95404 105.521 10.2761 105.787 10.5418C106.053 10.8074 106.423 11.2583 106.616 11.5481C106.801 11.8379 107.091 12.3452 107.252 12.6752C107.405 13.0053 107.679 13.6977 107.848 14.2049C108.017 14.7121 108.226 15.4931 108.315 15.9359C108.404 16.3787 108.516 17.1757 108.565 17.7071C108.613 18.2384 108.629 19.0757 108.605 19.5588C108.573 20.0499 108.516 20.7342 108.476 21.0885C108.436 21.4427 108.339 22.0224 108.275 22.3766C108.202 22.7308 108.033 23.3669 107.904 23.7855C107.767 24.2042 107.534 24.8241 107.381 25.1542C107.228 25.4843 106.914 26.0478 106.681 26.4021C106.447 26.7563 106.012 27.3118 105.698 27.6419C105.392 27.9639 104.869 28.4389 104.539 28.6805C104.209 28.9301 103.605 29.3084 103.211 29.5178C102.808 29.7271 102.156 30.0008 101.762 30.1377C101.359 30.2746 100.691 30.4517 100.272 30.5402C99.8534 30.6288 99.1047 30.7415 98.6216 30.7979C98.0742 30.8542 97.2288 30.8703 96.4076 30.8462C95.675 30.814 94.717 30.7415 94.2741 30.6771C93.8313 30.6127 93.1229 30.4839 92.7042 30.3953C92.2856 30.3068 91.5691 30.1135 90.2809 29.7029L90.289 28.7368L90.7076 28.8012C90.9411 28.8415 91.4241 28.9059 91.7784 28.9462C92.1326 28.9864 93.0021 29.0186 93.7106 29.0186C94.4191 29.0186 95.3771 28.9623 95.8441 28.9059C96.311 28.8415 97.0678 28.6966 97.5348 28.5758C98.0017 28.455 98.6378 28.2538 98.9598 28.125C99.2818 27.9961 99.8051 27.7627 100.127 27.6016C100.449 27.4406 101.037 27.0864 101.431 26.8127C101.834 26.547 102.462 26.0317 102.832 25.6775C103.211 25.3232 103.782 24.6711 104.112 24.2283C104.467 23.7694 104.917 23.0126 105.191 22.4571C105.457 21.9257 105.666 21.4346 105.666 21.3702C105.666 21.2978 105.505 21.1851 105.288 21.0965C105.07 21.016 104.684 20.8389 104.418 20.702C104.153 20.5732 103.718 20.3156 103.452 20.1384C103.187 19.9613 102.687 19.5346 102.341 19.2045C101.995 18.8664 101.528 18.3189 101.295 17.9889C101.069 17.6588 100.763 17.1355 100.626 16.8215C100.481 16.5155 100.304 15.9681 100.224 15.6138C100.127 15.1952 100.079 14.6719 100.079 14.1244C100.087 13.6172 100.143 13.0536 100.224 12.7155C100.296 12.4096 100.465 11.9265 100.594 11.6528C100.731 11.371 101.045 10.9282 101.295 10.6545C101.552 10.3807 101.866 10.099 102.003 10.0104C102.132 9.92988 102.446 9.79302 102.687 9.69641C103.017 9.57564 103.283 9.53539 103.734 9.55149ZM102.124 15.01C102.116 14.5431 102.148 14.4464 102.389 14.0922C102.55 13.8668 102.808 13.6253 103.017 13.5125C103.275 13.3676 103.492 13.3193 103.855 13.3193C104.145 13.3193 104.467 13.3837 104.66 13.4723C104.837 13.5447 105.119 13.738 105.296 13.8909C105.465 14.0439 105.69 14.3096 105.795 14.4867C105.9 14.6638 106.061 15.0261 106.157 15.2918C106.294 15.6782 106.334 16.0164 106.367 16.9422C106.383 17.5863 106.375 18.1338 106.334 18.166C106.302 18.1901 105.924 18.1338 105.505 18.0211C105.087 17.9164 104.41 17.6749 104.016 17.4736C103.581 17.2643 103.138 16.9744 102.905 16.749C102.695 16.5477 102.438 16.1854 102.325 15.96C102.18 15.646 102.124 15.3965 102.124 15.01Z" fill="white"></path>
      </g>
      <path id="Path 2" d="M73.937 6.70966L73.2527 6.53254C52.7148 6.48424 50.5008 6.50034 50.4686 6.58085C50.4444 6.6372 50.4364 12.4258 50.4444 19.4462L50.4686 32.2069H54.333L54.3733 10.1072L73.3332 10.1474C74.1463 10.5741 74.5811 10.8961 74.8226 11.1457C75.0641 11.3953 75.362 11.7978 75.4828 12.0394C75.6035 12.2809 75.7324 12.6432 75.7807 12.8445C75.829 13.0457 75.8692 13.4241 75.8692 13.6898C75.8692 13.9555 75.7968 14.4063 75.7163 14.6962C75.6277 14.986 75.4506 15.3805 75.3218 15.5818C75.1929 15.783 74.9273 16.097 74.7341 16.2822C74.5408 16.4754 74.1946 16.725 73.9773 16.8458C73.7518 16.9585 73.3895 17.1034 73.1722 17.1678C72.8501 17.2483 71.0467 17.2725 64.3725 17.2725H55.9835V21.1369C56.5148 21.2094 57.1589 21.3221 57.7547 21.4267C58.3504 21.5395 59.4212 21.7729 60.1297 21.9581C60.8382 22.1352 61.8848 22.4412 62.4644 22.6263C63.0361 22.8115 63.9458 23.1416 64.4772 23.3509C65.0085 23.5602 65.878 23.9386 66.4094 24.1882C66.9408 24.4458 67.77 24.8806 68.2611 25.1624C68.7442 25.4361 69.509 25.9111 69.9518 26.209C70.3946 26.5069 71.0467 26.9819 71.401 27.2637C71.7552 27.5454 72.3832 28.101 72.8018 28.5035C73.2205 28.898 73.8323 29.5582 74.1705 29.9607C74.5086 30.3713 74.9836 31.0315 75.2252 31.434L75.668 32.1586L80.1362 32.1667C79.3955 30.7014 78.8883 29.8399 78.5421 29.3086C78.1879 28.7772 77.6082 27.9963 77.254 27.5776C76.9078 27.159 76.2235 26.4344 75.7404 25.9675C75.2574 25.5005 74.4442 24.8081 73.937 24.4217C73.4298 24.0433 72.6328 23.5039 72.1658 23.2221C71.6989 22.9484 70.9179 22.5297 70.4349 22.3043C69.9438 22.0708 69.187 21.7488 68.7442 21.5878C68.3014 21.4348 67.6653 21.2174 67.3353 21.1208L66.7314 20.9356C72.4476 20.8471 73.2124 20.8149 73.6713 20.7102C73.9934 20.6297 74.5408 20.4687 74.879 20.3318C75.2251 20.203 75.7807 19.9212 76.1108 19.7038C76.4408 19.4945 76.9481 19.1 77.2298 18.8343C77.5116 18.5767 77.9464 18.0534 78.1959 17.675C78.4536 17.2966 78.7756 16.6928 78.9125 16.3225C79.0574 15.9602 79.2265 15.4047 79.2909 15.0987C79.3553 14.7847 79.4116 14.1568 79.4116 13.6898C79.4116 13.2229 79.3553 12.6029 79.2909 12.297C79.2345 11.9991 79.1057 11.5563 79.0252 11.3148C78.9366 11.0733 78.7676 10.6707 78.6468 10.4292C78.526 10.1877 78.2523 9.75291 78.043 9.46308C77.8337 9.17324 77.4472 8.73849 77.1815 8.49697C76.9239 8.25544 76.4972 7.90925 76.2315 7.74018C75.9658 7.56306 75.4908 7.29738 75.1849 7.16051C74.8709 7.0156 74.3154 6.81433 73.937 6.70966Z" fill="white"></path>
      <path id="Path 1" d="M38.1274 19.2851L29.1345 6.5244C28.0718 6.51635 27.2667 6.5244 26.6549 6.5405L25.5519 6.56465C11.6802 26.3136 7.61444 32.0941 7.56613 32.1505C7.49368 32.231 7.92037 32.2551 9.85259 32.2471H12.2276C23.829 15.7588 27.2184 10.9363 27.2426 10.9041C27.2667 10.8638 29.1506 13.4804 31.4291 16.7169C33.7075 19.9533 35.6477 22.7148 35.7363 22.8517C35.8249 22.9885 35.8571 23.0851 35.8168 23.0529C35.7685 23.0288 35.3337 22.6987 34.8346 22.3364C34.3435 21.9661 33.5062 21.4186 32.9829 21.1207C32.4596 20.8309 31.6303 20.4203 31.1473 20.211C30.6562 20.0016 29.8994 19.7118 29.4566 19.5588C29.0138 19.4139 28.1604 19.1643 27.5646 19.0194C26.9688 18.8665 25.9303 18.633 25.254 18.5122C24.5777 18.3834 24.0142 18.2948 23.9981 18.319C23.982 18.3431 23.4747 19.0677 22.8709 19.9292C22.2671 20.7906 21.776 21.5072 21.7921 21.5233C21.8002 21.5313 22.3718 21.6521 23.0561 21.7809C23.7404 21.9097 24.9722 22.1834 25.7934 22.3928C26.6146 22.594 27.8061 22.9402 28.4502 23.1495C29.0943 23.3589 30.1087 23.7212 30.7045 23.9627C31.3002 24.1962 32.5481 24.7678 33.482 25.2428C34.4079 25.7097 35.6236 26.378 36.1791 26.7322C36.7346 27.0864 37.5478 27.642 37.9906 27.972C38.4334 28.3021 39.1177 28.8496 39.5202 29.1958C39.9147 29.5339 40.6071 30.1941 41.058 30.653C41.5008 31.1039 42.008 31.6594 42.1851 31.8687L42.4991 32.2551C46.6131 32.2471 47.1283 32.2229 47.1203 32.1505C47.1203 32.0941 43.0707 26.3055 38.1274 19.2851Z" fill="white"></path>
    </g>
  </g>
</svg>
