<?xml version="1.0" encoding="UTF-8"?>
<svg id="Layer_1" data-name="Layer 1" xmlns="http://www.w3.org/2000/svg" xmlns:xlink="http://www.w3.org/1999/xlink" width="89" height="64" viewBox="0 0 292.26 273.19">
  <defs>
    <style>
      .cls-1 {
        fill: url(#linear-gradient-2);
      }

      .cls-2 {
        fill: url(#linear-gradient-3);
      }

      .cls-2, .cls-3, .cls-4, .cls-5, .cls-6 {
        fill-rule: evenodd;
      }

      .cls-3 {
        fill: url(#linear-gradient-6);
        opacity: .64;
      }

      .cls-4 {
        fill: url(#linear-gradient-5);
      }

      .cls-7 {
        fill: url(#linear-gradient-8);
      }

      .cls-5 {
        fill: url(#linear-gradient-4);
      }

      .cls-6 {
        fill: url(#linear-gradient-7);
      }

      .cls-8 {
        fill: #4b6c82;
      }

      .cls-9 {
        fill: url(#linear-gradient);
      }
    </style>
    <linearGradient id="linear-gradient" x1="47.99" y1="108.21" x2="223.16" y2="108.21" gradientUnits="userSpaceOnUse">
      <stop offset="0" stop-color="#21bcc3"/>
      <stop offset=".18" stop-color="#1eb8a9"/>
      <stop offset=".67" stop-color="#17ad68"/>
      <stop offset=".91" stop-color="#15aa4f"/>
    </linearGradient>
    <linearGradient id="linear-gradient-2" x1="179.24" y1="174.85" x2="221.4" y2="150.51" gradientUnits="userSpaceOnUse">
      <stop offset="0" stop-color="#084e34" stop-opacity="0"/>
      <stop offset=".2" stop-color="#084e34" stop-opacity=".07"/>
      <stop offset=".45" stop-color="#084e34" stop-opacity=".26"/>
      <stop offset=".72" stop-color="#084e34" stop-opacity=".57"/>
      <stop offset="1" stop-color="#084e34"/>
    </linearGradient>
    <linearGradient id="linear-gradient-3" x1="84.16" y1="96.76" x2="199.92" y2="96.76" gradientUnits="userSpaceOnUse">
      <stop offset="0" stop-color="#45afe3"/>
      <stop offset=".1" stop-color="#40a6dd"/>
      <stop offset=".7" stop-color="#2979be"/>
      <stop offset="1" stop-color="#2068b2"/>
    </linearGradient>
    <linearGradient id="linear-gradient-4" x1="74.95" y1="87.12" x2="163.58" y2="87.12" xlink:href="#linear-gradient-3"/>
    <linearGradient id="linear-gradient-5" x1="84.2" y1="127.81" x2="257.92" y2="127.81" gradientUnits="userSpaceOnUse">
      <stop offset=".14" stop-color="#45afe3"/>
      <stop offset=".18" stop-color="#41a7dd"/>
      <stop offset=".36" stop-color="#328bca"/>
      <stop offset=".54" stop-color="#2877bc"/>
      <stop offset=".72" stop-color="#226bb4"/>
      <stop offset=".91" stop-color="#2068b2"/>
    </linearGradient>
    <linearGradient id="linear-gradient-6" x1="103.57" y1="148.23" x2="145.32" y2="106.49" gradientUnits="userSpaceOnUse">
      <stop offset="0" stop-color="#2068b2"/>
      <stop offset="0" stop-color="#2069b3" stop-opacity=".98"/>
      <stop offset=".08" stop-color="#2979be" stop-opacity=".75"/>
      <stop offset=".16" stop-color="#3088c8" stop-opacity=".55"/>
      <stop offset=".24" stop-color="#3794d0" stop-opacity=".38"/>
      <stop offset=".33" stop-color="#3c9ed7" stop-opacity=".24"/>
      <stop offset=".43" stop-color="#40a5dc" stop-opacity=".13"/>
      <stop offset=".55" stop-color="#42aae0" stop-opacity=".06"/>
      <stop offset=".7" stop-color="#44aee2" stop-opacity=".01"/>
      <stop offset="1" stop-color="#45afe3" stop-opacity="0"/>
    </linearGradient>
    <linearGradient id="linear-gradient-7" x1="68.13" y1="75.7" x2="125.73" y2="75.7" xlink:href="#linear-gradient-3"/>
    <linearGradient id="linear-gradient-8" x1="110.58" y1="23.59" x2="160.57" y2="23.59" gradientUnits="userSpaceOnUse">
      <stop offset="0" stop-color="#226ab3"/>
      <stop offset="1" stop-color="#2068b2"/>
    </linearGradient>
  </defs>
  <g>
    <path class="cls-9" d="M47.99,81.21c.1-1.28.19-2.57.29-3.85.74-10.15,3.61-19.64,8.92-28.35,4.9-8.03,11.55-14.23,19.73-18.83,5.64-3.17,11.66-5.33,18.02-6.6-.13.07-.25.15-.38.21-.14.07-.3.11-.44.17-7.43,2.85-14.22,6.72-19.86,12.42-6.32,6.39-10.11,14.09-11.73,22.89-1.02,5.5-1.11,11.03-.67,16.6.9,11.24,3.92,21.9,8.95,31.94,3.64,7.26,8.16,14.01,13.38,20.25,11.43,13.66,25.09,24.44,41.24,32,7.52,3.52,15.36,6.07,23.57,7.41,4.87.8,9.77,1.11,14.72.89,4.49-.2,8.92-.69,13.26-1.87,14.63-4,25.22-12.79,31.44-26.69,2.24-5.01,3.48-10.3,4.03-15.76.8-7.88-.1-15.6-1.98-23.25-2.21-8.98-5.89-17.34-10.67-25.23-6.24-10.31-14.01-19.34-23.07-27.27-4.46-3.91-9.21-7.44-14.22-10.62-.22-.14-.43-.3-.65-.45.04-.08.09-.15.13-.23.18.08.38.13.55.23,6.99,4.15,13.53,8.91,19.66,14.25,6.19,5.4,11.86,11.3,16.93,17.76,6.78,8.65,12.41,17.98,16.66,28.14,2.4,5.74,4.27,11.63,5.55,17.72.93,4.43,1.5,8.91,1.71,13.44.4,8.68-.57,17.19-3.38,25.43-4.68,13.71-13.22,24.24-26.02,31.19-6.38,3.46-13.2,5.62-20.36,6.67-2.55.38-5.13.56-7.69.84-.26.03-.51.1-.77.15h-8.06c-.33-.06-.67-.12-1-.16-3.94-.49-7.92-.78-11.82-1.5-11.56-2.15-22.41-6.33-32.64-12.08-18.12-10.18-32.98-23.91-44.67-41.08-6.55-9.61-11.63-19.95-14.93-31.12-1.63-5.52-2.78-11.13-3.28-16.86-.15-1.73-.29-3.46-.44-5.19,0-1.21,0-2.42,0-3.64Z"/>
    <path class="cls-1" d="M176.99,166.51c14.63-4,25.22-12.79,31.44-26.69,2.24-5.01,14.06,5.93,11.25,14.17-4.68,13.71-13.22,24.24-26.02,31.19-6.38,3.46-21.01-17.48-16.67-18.67Z"/>
    <g>
      <g>
        <path class="cls-2" d="M84.16,121.53c31.3-21.55,64.64-38.56,100.69-49.55l15.06,17.55c-39.56,4.08-77.78,17.33-115.75,32Z"/>
        <path class="cls-5" d="M74.95,115.48c17.7-21.38,43.1-47.05,76.57-56.72l12.06,13.54c-31.99,5.63-61.39,26.56-88.63,43.17Z"/>
        <path class="cls-4" d="M84.2,128.07c54.79-19.27,112.57-31.46,173.72-33.98-5.66,22.52-23.64,53.89-42.51,67.43-38.04-11.87-75.74-19.35-116.93-18.66.3,0-.98-.67-7.03-6.75-3.93-3.95-7.25-8.04-7.25-8.04Z"/>
        <path class="cls-3" d="M84.2,128.07c15.25-5.36,30.73-10.18,46.45-14.39,40.76-10.92,32.22,33.49,4.93,30.74-12.11-1.22-24.44-1.78-37.1-1.57.3,0-.98-.67-7.03-6.75-3.93-3.95-7.25-8.04-7.25-8.04Z"/>
      </g>
      <path class="cls-6" d="M68.13,105.23c13.53-30.15,28.8-48.12,45.54-59.05l12.06,13.54c-18.37,6.91-35.9,22.72-57.6,45.5Z"/>
    </g>
    <path class="cls-7" d="M155.65,31.99c-1.2,1.08.3-.42,0,0-.12-.12-.24-.24-.33-.34.52-.63,2.03-1.95,2.98-2.78,2.02-1.77,2.28-2.02,2.28-2.46,0-.29-.13-.57-.41-.83-.66-.61-2.18-1.18-3.69-1.03-1.06.11-2.54,1.01-3.97,1.89-.72.44-1.69,1.03-2.07,1.14-1.37-.81-11.4-7.76-13.12-9.17.51-1.1,2.76-4.59,4.16-6.04.91-.95,4.59-3.92,7.55-6.31,3.79-3.07,4.39-3.57,4.54-3.82.17-.27.16-.61,0-.91-.46-.78-2.31-1.36-3.54-1.32-.89.03-4.14,1.87-11.09,6-1.65.98-3.35,1.99-4.05,2.37-.5-.37-1.31-.92-2.1-1.43-2.14-1.35-2.43-1.28-2.7-1.21h0c-.75.18-1.7,1.99-1.89,2.35-.36.71-.44,1.08-.31,1.41.09.23.28.49,1.55,1.25.23.14.47.27.69.4-1.1.57-3.01,1.39-3.64,1.48-.19-.12-.53-.35-.95-.62-1.74-1.14-4.98-3.26-7.42-4.7-1.68-1-3.54-1.22-4.5-1.27-.74-.04-2.52-.05-2.93.64-.41.68.41,2.25.79,2.89.48.83,1.54,2.38,3.2,3.41,2.4,1.49,5.79,3.39,7.6,4.41.43.24.78.44.98.55.21.6.37,2.68.37,3.91-.22-.14-.45-.29-.68-.43-1.26-.77-1.58-.82-1.83-.79-.35.03-.64.28-1.11.93-.23.33-1.4,2.01-1.21,2.76.07.28.14.56,2.33,1.84.81.47,1.67.94,2.23,1.21-.01.79-.12,2.76-.23,4.68-.45,8.07-.59,11.81-.21,12.61.53,1.11,1.9,2.48,2.8,2.53.34.02.64-.14.81-.41.15-.25.32-1.01,1.29-5.8.76-3.72,1.7-8.36,2.12-9.6.64-1.92,2.7-5.53,3.44-6.48,2.05.87,12.83,6.55,14.2,7.4.08.38,0,1.52-.06,2.36-.12,1.67-.24,3.4.16,4.39.56,1.41,1.76,2.49,2.61,2.8.27.1.5.12.71.07.07-.02.15-.04.21-.08.38-.21.49-.56,1.13-3.16.3-1.23.78-3.17,1.1-3.93.13.04.28.09.45.14M158.16,36.82"/>
  </g>
  <g>
    <path class="cls-8" d="M23.31,222h-1.41c-1.06,0-1.12.23-1.12,1.76v14.91h-10.04c-2.47,0-5.22-1.06-7.16-2.64-2-1.64-3.58-4.11-3.58-6.93s1.47-5.4,3.7-6.99c2.29-1.58,5.64-2.52,9.51-2.52h10.1v2.41ZM5.64,213.54c0-1.59,1.41-3.11,3.05-3.11s3.05,1.53,3.05,3.11-1.47,3.05-3.05,3.05-3.05-1.53-3.05-3.05ZM8.98,223.93c-1.76,1-2.99,2.76-2.99,5.23,0,3.58,1.82,6.28,4.7,6.28h3.93v-12.09c-2-.47-3.93-.35-5.64.59ZM12.8,213.54c0-1.59,1.53-3.11,3.05-3.11s3.11,1.53,3.11,3.11-1.53,3.05-3.11,3.05-3.05-1.53-3.05-3.05Z"/>
    <path class="cls-8" d="M50.72,238.67h-4.23c-1.7-.06-2.82-.53-4.11-1.59-.41-.29-.76-.65-1.12-1.06-1.7,1.59-4.23,2.64-7.16,2.64h-7.87v-3.23h7.1c1.64,0,2.7-.59,3.52-1.76.82-1.17,1.17-2.76,1.17-4.7,0-3.82-1.53-6.05-4.76-6.05-2.7,0-4.23.94-4.11,4.05h-2.52c0-3.35-.12-4.99,1.29-6.22h-.06c1.17-1.12,3.41-1.53,6.22-1.53,3.05,0,5.69,1.12,7.4,2.88s2.7,4.29,2.7,6.87v1.29c.18,3.52,1.76,5.17,4.76,5.17h1.76v3.23Z"/>
    <path class="cls-8" d="M62.35,222.11h-1.47c-.88,0-1.12.41-1.12,1.76v11.57h7.87v3.23h-19.26v-3.23h5.23v-15.68h8.75v2.35ZM50.49,244.42c0-1.58,1.41-3.11,3.05-3.11s3.05,1.53,3.05,3.11-1.47,3.05-3.05,3.05-3.05-1.53-3.05-3.05ZM57.65,244.42c0-1.58,1.53-3.11,3.05-3.11s3.11,1.53,3.11,3.11-1.53,3.05-3.11,3.05-3.05-1.53-3.05-3.05Z"/>
    <path class="cls-8" d="M86.77,220.64c1.41,1.23,1.29,2.88,1.29,6.22h-2.52c.12-3.05-1.41-4.05-4.11-4.05-3.35,0-4.76,2.17-4.76,6.05,0,1.88.29,3.4,1,4.64.65,1.12,1.47,1.7,2.88,1.94h12.68v3.23h-27.94v-3.23h7.69c-1.59-1.7-2.47-4.05-2.47-6.58s.94-5.11,2.7-6.87,4.34-2.82,7.4-2.82c2.82,0,5.05.41,6.16,1.47Z"/>
    <path class="cls-8" d="M132.21,238.67h-4.87c-1.76-.06-2.82-.59-4.11-1.64-.29-.18-.53-.41-.76-.65-1.47,1.41-3.52,2.29-5.81,2.29-1,0-2.41-.29-3.52-.76-.7-.35-1.53-.82-2.11-1.53-1.35,1.41-3.23,2.11-5.05,2.17-1.94.06-4.11-.65-5.58-2.05-1.35,1.17-2.99,2.17-5.23,2.17h-4.29v-3.23h1.94c1.12,0,2.05-.29,2.88-1.12s1.35-1.94,1.53-3.99v-9.45h8.75v2.35h-1.41c-1.06,0-1.29.47-1.29,1.76v8.1c0,1.35,1.06,2.41,2.41,2.41s2.17-1.06,2.35-2.47v-12.8h8.69v2.35h-1.47c-1,0-1.06.29-1.06,1.76v9.04c.12,1.12,1.12,2,2.29,2,1.35,0,2.41-1.06,2.41-2.35v-13.44h8.69v2.35h-1.41c-1.06,0-1.12.23-1.12,1.76v6.52c.18,3.52,1.88,5.23,4.76,5.23h2.41v3.23Z"/>
    <path class="cls-8" d="M142.31,215.6v14.03c0,2.7-.88,4.99-2.35,6.52-1.47,1.53-3.58,2.52-5.87,2.52h-4.23v-3.23h1.88c1.12,0,2.11-.29,2.88-1.12.82-.82,1.35-1.94,1.53-3.99v-18.85h8.75v2.41c-2.29-.12-2.58.12-2.58,1.7Z"/>
    <path class="cls-8" d="M156.52,211.55v2.35c-2.29-.18-2.52.12-2.52,1.7v23.07h-6.16v-27.18l8.69.06Z"/>
    <path class="cls-8" d="M192.22,222h-1.47c-.88,0-1.12.41-1.12,1.76v11.68h5.23v3.23h-15.32c-2.52-.06-5.23-1.06-7.16-2.64-2-1.64-3.52-4.11-3.52-6.93,0-5.69,5.4-9.45,13.27-9.45h10.1v2.35ZM173.9,213.54c0-1.59,1.41-3.11,3.05-3.11s3.05,1.53,3.05,3.11-1.47,3.05-3.05,3.05-3.05-1.53-3.05-3.05ZM177.83,223.93c-1.76,1-2.99,2.76-2.99,5.23,0,1.88.47,3.35,1.41,4.52.82,1.17,1.88,1.76,3.29,1.76h3.93v-12.15c-1.94-.41-3.93-.29-5.64.65ZM181.06,213.54c0-1.59,1.53-3.11,3.05-3.11s3.11,1.53,3.11,3.11-1.53,3.05-3.11,3.05-3.05-1.53-3.05-3.05Z"/>
    <path class="cls-8" d="M204.96,215.6v14.03c0,2.7-.88,4.99-2.35,6.52-1.47,1.53-3.58,2.52-5.87,2.52h-4.23v-3.23h1.88c1.12,0,2.11-.29,2.88-1.12.82-.82,1.35-1.94,1.53-3.99v-18.85h8.75v2.41c-2.29-.12-2.58.12-2.58,1.7Z"/>
    <path class="cls-8" d="M231.26,223.58v11.86h5.17v3.23h-5.28v-.06c0,3.4-1.7,5.64-3.4,6.81-1.88,1.29-3.93,1.76-4.81,2h-.06c-.29.06-.88.06-1.23-.18-.94-.59-.29-1.53.12-1.82,1.58-.82,2.35-1.94,2.82-3.29.41-1.06.53-2.23.59-3.46h-2.17c-3.58,0-6.75-1.06-8.92-2.64-2.23-1.64-3.58-4.11-3.58-6.93,0-5.81,5.4-9.63,13.27-9.63h10.1v2.41h-1.47c-.94,0-1.12.35-1.12,1.7ZM216.46,229.1c0,3.93,2.41,6.11,5.75,6.52h2.88v-12.5c-.65-.12-1.29-.18-2-.18-3.99,0-6.63,2.05-6.63,6.16Z"/>
    <path class="cls-8" d="M256.97,229.69l.06.06c1.12,1.17,2,2,2.64,2.64l1.47,1.47c.59.65.88,1.06,1.29,1.58h5.52v3.23h-3.99c.41,1.7.35,3.35.06,4.64-.41,1.58-1.17,2.94-1.58,3.64-.23.29-.76.88-1.35.82-.94-.06-.94-1-.76-1.41.41-1.7.18-3.05-.41-4.29-.53-1.17-1.41-2.11-2.17-2.99l-.41-.41h-23.25v-3.23h20.08l-10.57-10.39c-.94-.94-1.35-1.12-1.94-.41l-1.06,1-1.64-1.64,6.11-6.16c5.81,5.81,9.51,9.51,11.92,11.86ZM246.11,245.07c0-1.59,1.41-3.11,3.05-3.11s3.05,1.53,3.05,3.11-1.47,3.05-3.05,3.05-3.05-1.53-3.05-3.05Z"/>
    <path class="cls-8" d="M278.05,215.6v14.03c0,2.7-.88,4.99-2.35,6.52-1.47,1.53-3.58,2.52-5.87,2.52h-4.23v-3.23h1.88c1.12,0,2.11-.29,2.88-1.12.82-.82,1.35-1.94,1.53-3.99v-18.85h8.75v2.41c-2.29-.12-2.58.12-2.58,1.7Z"/>
    <path class="cls-8" d="M292.26,211.55v2.35c-2.29-.18-2.52.12-2.52,1.7v23.07h-6.16v-27.18l8.69.06Z"/>
  </g>
  <g>
    <path class="cls-8" d="M34.25,256.05v16.9h-3.14v-7.24h-8.74v7.24h-3.14v-16.9h3.14v6.98h8.74v-6.98h3.14Z"/>
    <path class="cls-8" d="M59.4,269.04h-8.45l-1.67,3.91h-3.23l7.6-16.9h3.09l7.63,16.9h-3.28l-1.69-3.91ZM58.37,266.58l-3.19-7.39-3.16,7.39h6.35Z"/>
    <path class="cls-8" d="M90.33,262.06c0,3.72-2.75,6.01-7.19,6.01h-3.81v4.88h-3.14v-16.9h6.95c4.44,0,7.19,2.27,7.19,6.01ZM87.17,262.06c0-2.12-1.42-3.36-4.18-3.36h-3.67v6.71h3.67c2.75,0,4.18-1.23,4.18-3.36Z"/>
    <path class="cls-8" d="M117.27,262.06c0,3.72-2.75,6.01-7.19,6.01h-3.81v4.88h-3.14v-16.9h6.95c4.44,0,7.19,2.27,7.19,6.01ZM114.11,262.06c0-2.12-1.42-3.36-4.18-3.36h-3.67v6.71h3.67c2.75,0,4.18-1.23,4.18-3.36Z"/>
    <path class="cls-8" d="M137.36,266.99v5.96h-3.14v-5.91l-6.64-10.98h3.36l4.95,8.23,5-8.23h3.09l-6.61,10.93Z"/>
    <path class="cls-8" d="M175.44,258.71h-5.6v-2.66h14.34v2.66h-5.6v14.24h-3.14v-14.24Z"/>
    <path class="cls-8" d="M194.75,264.5c0-5,3.86-8.69,9.1-8.69s9.1,3.67,9.1,8.69-3.86,8.69-9.1,8.69-9.1-3.69-9.1-8.69ZM209.79,264.5c0-3.45-2.53-5.94-5.94-5.94s-5.94,2.49-5.94,5.94,2.53,5.94,5.94,5.94,5.94-2.49,5.94-5.94Z"/>
    <path class="cls-8" d="M225.8,265.59v-9.54h3.14v9.41c0,3.48,1.57,4.97,4.3,4.97s4.27-1.5,4.27-4.97v-9.41h3.09v9.54c0,4.92-2.78,7.6-7.39,7.6s-7.41-2.68-7.41-7.6Z"/>
    <path class="cls-8" d="M265.71,272.95l-3.45-4.95c-.22.02-.43.02-.65.02h-3.81v4.92h-3.14v-16.9h6.95c4.44,0,7.19,2.27,7.19,6.01,0,2.56-1.3,4.44-3.6,5.33l3.89,5.55h-3.38ZM261.46,258.71h-3.67v6.73h3.67c2.75,0,4.18-1.25,4.18-3.38s-1.42-3.36-4.18-3.36Z"/>
  </g>
</svg>